<svg width="641" height="374" viewBox="0 0 641 374" fill="none" xmlns="http://www.w3.org/2000/svg">
<g opacity="0.55">
<path d="M393.277 11.6338V367" stroke="black"/>
<path d="M393.277 231.125H593.303" stroke="black"/>
<path d="M469.477 231.125V367" stroke="black"/>
<path d="M469.477 283.384H440.902H393.277" stroke="black"/>
<path d="M440.902 283.385V231.125" stroke="black"/>
<path d="M440.902 262.48H469.477" stroke="black"/>
<path d="M450.428 262.48V283.384" stroke="black"/>
<path d="M450.427 272.933H440.902" stroke="black"/>
</g>
<path d="M35 364.489C35 164.563 233.116 12 421.914 12C536.113 12 634 105.701 634 231.431C634 310.478 569.84 369 500.721 369C453.972 369 408.539 322.281 408.539 279.387C408.539 246.245 432.84 219.322 457.262 219.322C472.379 219.322 493.129 229.398 493.565 245.479C493.855 256.202 490.365 275.027 480.19 275.027C475.538 275.027 462.466 274.251 462.466 268.889" stroke="#3B82F6" stroke-linecap="round" stroke-linejoin="round"/>
</svg>
