<svg width="603" height="374" viewBox="0 0 603 374" fill="none" xmlns="http://www.w3.org/2000/svg">
<g clip-path="url(#clip0_10_14)">
<line x1="372.75" y1="374" x2="372.75" y2="20" stroke="black" stroke-width="0.5"/>
<line x1="373" y1="238.396" x2="603" y2="238.396" stroke="black" stroke-width="0.5"/>
<line x1="373" y1="290.456" x2="463" y2="290.456" stroke="black" stroke-width="0.5"/>
<line x1="463" y1="270.131" x2="427" y2="270.131" stroke="black" stroke-width="0.5"/>
<line x1="427" y1="278.151" x2="441" y2="278.151" stroke="black" stroke-width="0.5"/>
<line x1="440.25" y1="269.881" x2="440.25" y2="290.705" stroke="black" stroke-width="0.5"/>
<line x1="462.25" y1="238.646" x2="462.25" y2="373.053" stroke="black" stroke-width="0.5"/>
<line x1="427.25" y1="238.646" x2="427.25" y2="289.759" stroke="black" stroke-width="0.5"/>
<path d="M0.5 373.999C0.5 162.499 177.706 12.9988 372.383 19.9996C499.173 16.9994 602.502 102.999 602.502 231.999C602.502 311.999 531.619 374.499 461.236 372.499C405.329 371.499 373.881 328.999 372.383 285.499C372.383 247.999 404.33 231.499 426.793 231.499C444.264 231.499 460.238 244.499 460.238 264.499C460.238 275.499 449.572 286.482 439.272 285.499C432.783 284.88 426.793 278.999 427.791 272.499" stroke="#3B82F6" stroke-linecap="round" stroke-linejoin="round"/>
</g>
<defs>
<clipPath id="clip0_10_14">
<rect width="603" height="374" fill="white"/>
</clipPath>
</defs>
</svg>
